<svg
        xmlns="http://www.w3.org/2000/svg"
        xmlns:xlink="http://www.w3.org/1999/xlink"
        viewBox="0 0 397.319 37.498"
        baseProfile="full"
        width="270"
>
    <defs>
        <style>.cls-1{fill:#fff;}.cls-2{fill:#5a5a96;}.cls-3{fill:#b42846;}.cls-4{fill:#008cc3;}.cls-5{fill:#e16428;}.cls-6{fill:#00a846;}.cls-7{fill:#f0b428;}</style>
    </defs>
    <title>sportsengine</title>
    <g id="layer1" data-name="Layer1">
        <polygon points="330.337 22.877 330.339 22.877 330.337 13.369 330.337 22.877"/>
        <polygon points="330.339 22.877 330.339 23.594 330.339 22.877 330.339 22.877"/>
        <path d="M348.593,24.314H336.219a.562.562,0,0,1-.561-.561v-2.12a.562.562,0,0,1,.561-.561h11.4c.122,0,.242,0,.362-.01h0a5.755,5.755,0,0,0,5.724-5.156c.024-.23.038-2.535.038-2.535a6.621,6.621,0,0,0-.08-1.032A5.814,5.814,0,0,0,347.621,7.5H336.465a5.793,5.793,0,0,0-6.128,5.874l0,9.508h0v.717l0,0a5.793,5.793,0,0,0,6.128,5.874h17.284V22.758h-5.156Zm-12.539-8.4a.562.562,0,0,1-.561-.561V13.212a.562.562,0,0,1,.561-.561h11.8a.557.557,0,0,1,.487.3.547.547,0,0,1,.075.263v2.137a.563.563,0,0,1-.562.561Z"/>
        <path d="M287.676,7.494h-16.4a7.2,7.2,0,0,0-4.632,1.541,6.923,6.923,0,0,0-2.426,5.516v7.861a6.768,6.768,0,0,0,7.058,7.057h11.072v1.817a1.047,1.047,0,0,1-1.057,1.057H265.068V37.5h16.481a5.793,5.793,0,0,0,6.128-5.874Zm-5.324,16.347a.563.563,0,0,1-.561.561H270.108a.563.563,0,0,1-.561-.561V13.3a.564.564,0,0,1,.561-.562h11.683a.564.564,0,0,1,.561.562Z"/>
        <path d="M297.536,0V5.549h-5.325V0Zm-5.325,7.493h5.325V29.468h-5.325Z"/>
        <path d="M320.478,29.468V13.705a1.047,1.047,0,0,0-1.057-1.057H307.4v16.82h-5.324V7.493h17.6a5.792,5.792,0,0,1,6.127,5.874v16.1Z"/>
        <path d="M253.307,12.648l-.01,0h.032Z"/>
        <path d="M253.56,7.493h-17.6V29.468h5.325V13.212a.563.563,0,0,1,.562-.561H253.8a.563.563,0,0,1,.561.561l0,16.256h5.325v-16.1A5.792,5.792,0,0,0,253.56,7.493Z"/>
        <path d="M99.089,7.494h-16.4v30h5.325V29.469H99.089a6.768,6.768,0,0,0,7.057-7.058v-7.86A6.722,6.722,0,0,0,99.089,7.494Zm1.732,16.346a.563.563,0,0,1-.561.561H88.578a.563.563,0,0,1-.561-.561V13.3a.563.563,0,0,1,.561-.562H100.26a.563.563,0,0,1,.561.562Z"/>
        <path d="M126.143,7.492H116.8a6.768,6.768,0,0,0-7.058,7.057v7.86a6.722,6.722,0,0,0,7.058,7.058h9.339a6.768,6.768,0,0,0,7.057-7.058v-7.86A6.721,6.721,0,0,0,126.143,7.492Zm1.732,16.258a.562.562,0,0,1-.561.561H115.632a.562.562,0,0,1-.561-.561V13.209a.562.562,0,0,1,.561-.561h11.682a.562.562,0,0,1,.561.561Z"/>
        <path d="M159.515,12.638V7.482h3.41V2.834h5.325V7.482h6.272v5.156H168.25V23.245a1.046,1.046,0,0,0,1.057,1.056h5.215v5.156h-5.469a5.793,5.793,0,0,1-6.128-5.874V12.638Z"/>
        <path d="M156.385,13.368a5.6,5.6,0,0,0-2.349-4.726,6.516,6.516,0,0,0-3.778-1.148H137.369V29.469h5.324V13.211a.562.562,0,0,1,.561-.561h7.256a.562.562,0,0,1,.561.561v3.58h5.315Z"/>
        <path d="M73.144,14.205h5.133V7.494H60.993a5.814,5.814,0,0,0-6.048,4.842,6.621,6.621,0,0,0-.08,1.032s.014,2.3.038,2.535a5.755,5.755,0,0,0,5.724,5.156h0c.12.006.24.01.362.01H72.4a.562.562,0,0,1,.561.561v2.12a.562.562,0,0,1-.561.561H60.021V22.757H54.865v6.712H72.149A5.793,5.793,0,0,0,78.277,23.6l0,0V21.777a6.621,6.621,0,0,0-.08-1.032A5.791,5.791,0,0,0,72.3,15.909H60.755a.563.563,0,0,1-.561-.561V13.211a.563.563,0,0,1,.561-.561H73.121v1.555Z"/>
        <path d="M197.766,14.205H202.9V7.494H185.614a5.814,5.814,0,0,0-6.048,4.842,6.621,6.621,0,0,0-.08,1.032s.014,2.3.038,2.535a5.755,5.755,0,0,0,5.724,5.156h0c.12.006.241.01.362.01h11.4a.562.562,0,0,1,.561.561v2.12a.562.562,0,0,1-.561.561H184.642V22.757h-5.156v6.712H196.77A5.793,5.793,0,0,0,202.9,23.6l0,0V21.777a6.621,6.621,0,0,0-.08-1.032,5.79,5.79,0,0,0-5.89-4.836H185.377a.562.562,0,0,1-.561-.561V13.211a.562.562,0,0,1,.561-.561h12.365v1.555Z"/>
        <polygon points="207.565 22.876 207.567 22.876 207.565 13.368 207.565 22.876"/>
        <polygon points="207.567 22.876 207.567 23.593 207.567 22.876 207.567 22.876"/>
        <path d="M225.821,24.313H213.447a.562.562,0,0,1-.561-.561v-2.12a.562.562,0,0,1,.561-.561h11.4c.122,0,.242,0,.362-.01h0a5.755,5.755,0,0,0,5.724-5.156c.024-.23.038-2.535.038-2.535a6.621,6.621,0,0,0-.08-1.032,5.814,5.814,0,0,0-6.048-4.842H213.693a5.793,5.793,0,0,0-6.128,5.874l0,9.508h0v.717l0,0a5.793,5.793,0,0,0,6.128,5.874h17.284V22.757h-5.156Zm-12.539-8.4a.562.562,0,0,1-.561-.561V13.211a.562.562,0,0,1,.561-.561h11.8a.557.557,0,0,1,.487.3.546.546,0,0,1,.074.263v2.137a.562.562,0,0,1-.561.561Z"/>
        <path d="M362.091,16.01h2.368V29.49h-2.368Z"/>
        <path d="M369.988,16.01h2.2l7.22,9.32V16.01h2.331V29.49h-1.984l-7.432-9.59v9.59h-2.331Z"/>
        <path d="M384.994,22.788v-.039a6.82,6.82,0,0,1,6.952-6.97,7.027,7.027,0,0,1,5.277,2.1L395.7,19.63a5.357,5.357,0,0,0-3.774-1.676,4.537,4.537,0,0,0-4.448,4.757v.038a4.542,4.542,0,0,0,4.448,4.776,5.267,5.267,0,0,0,3.871-1.733l1.521,1.54a6.955,6.955,0,0,1-5.469,2.388A6.78,6.78,0,0,1,384.994,22.788Z"/>
        <path class="cls-1" d="M24.079,4.641a6.811,6.811,0,0,1,2.956-2.7,6.275,6.275,0,0,1,6.458.938,6.118,6.118,0,0,1,2.05,5.711,10.091,10.091,0,0,0,1.219-.471,6.186,6.186,0,0,1,6.756,2.213,6.124,6.124,0,0,1,.8,5.765,6.55,6.55,0,0,1-1.769,2.491l.081.076a6.224,6.224,0,0,1,5.335,4.148,6.083,6.083,0,0,1-1.552,6.272,6.54,6.54,0,0,1-4.97,1.741H6.717A6.3,6.3,0,0,1,.471,27.088a6.064,6.064,0,0,1,1.272-6.617,6.531,6.531,0,0,1,3.946-1.856,6.255,6.255,0,0,1-2.015-5.966A6.144,6.144,0,0,1,7.4,8.281a6.357,6.357,0,0,1,5.219.338l.056-.061a6.039,6.039,0,0,1,2.759-6.179,6.2,6.2,0,0,1,6.666.11,6.658,6.658,0,0,1,1.981,2.152"/>
        <path class="cls-2" d="M33.916,5.583a5.4,5.4,0,0,1-.476,4.826L27.415,23.971l-.05.059L25.181,10.275c-.176-1.315,1.243-1.879,2.07-2.517-.037-.194-.257-.185-.394-.274l-2.031-.022-.06-.064a4.66,4.66,0,0,1,2.485-4.11,4.831,4.831,0,0,1,5.327.518,5.093,5.093,0,0,1,1.338,1.777"/>
        <path class="cls-3" d="M22.812,5.107a4.88,4.88,0,0,1,.6,3.093L20.959,23.946c.01.026-.009.044-.032.051l-.633-1.263L14.134,8.977a4.771,4.771,0,0,1,6.383-5.85,5.121,5.121,0,0,1,2.3,1.98"/>
        <path class="cls-4" d="M42.827,11.74a4.846,4.846,0,0,1-.278,4.861,8.22,8.22,0,0,1-2.307,1.986L27.48,27.345h-.035l.144-.421,6.765-15.263a4.868,4.868,0,0,1,4.994-2.439,4.924,4.924,0,0,1,3.479,2.518"/>
        <path class="cls-5" d="M13.837,11.661l7.04,15.683H20.76L6.569,17.562a4.676,4.676,0,0,1-1.542-4.881A4.884,4.884,0,0,1,7.9,9.5a4.863,4.863,0,0,1,5.937,2.162"/>
        <path class="cls-6" d="M46.529,22.812a4.863,4.863,0,0,1-.585,4.81,4.767,4.767,0,0,1-3.919,1.837l-15.13.013,12.676-8.817a4.895,4.895,0,0,1,4.47-.3,4.948,4.948,0,0,1,2.488,2.456"/>
        <path class="cls-7" d="M1.723,22.812a4.835,4.835,0,0,0,.578,4.81,4.775,4.775,0,0,0,3.92,1.837l15.135.013L8.678,20.655a4.858,4.858,0,0,0-6.955,2.157"/>
    </g>
</svg>